# xmcd CD database file
#
# Track frame offsets:
#	183
#	26918
#	45390
#	74275
#	102108
#	124695
#	138623
#	154060
#
# Disc length: 2376 seconds
#
# Revision: 0
# Processed by: cddbd v1.5.1PL0 Copyright (c) Steve Scherf et al.
# Submitted via: CDex 1.51
#
DISCID=69094608
DTITLE=Sylvain Kassap Quartet - Quixote
DYEAR=1994
DGENRE=Jazz
TTITLE0=Hellene
TTITLE1=12 Decembre
TTITLE2=Dense Fureur
TTITLE3=Viuda Negra
TTITLE4=Captain bongui and his crew
TTITLE5=Send in the clowns
TTITLE6=Nepdalok
TTITLE7=Quixote
EXTD=YEAR: 1994
EXTT0=
EXTT1=
EXTT2=
EXTT3=
EXTT4=
EXTT5=
EXTT6=
EXTT7=
PLAYORDER=
